<svg width="114" height="115" viewBox="0 0 114 115" fill="none" xmlns="http://www.w3.org/2000/svg">
<path d="M48.0791 11.4243L56.326 3.17746C56.9093 2.59417 57.855 2.59417 58.4383 3.17746L66.6852 11.4243C67.2684 12.0076 67.2684 12.9533 66.6852 13.5366L58.4383 21.7835C57.855 22.3668 56.9093 22.3668 56.326 21.7835L48.0791 13.5366C47.4958 12.9533 47.4958 12.0076 48.0791 11.4243Z" stroke="white" stroke-width="3"/>
<path d="M48.0791 101.24L56.326 92.9926C56.9093 92.4094 57.855 92.4094 58.4383 92.9926L66.6851 101.24C67.2684 101.823 67.2684 102.769 66.6851 103.352L58.4383 111.599C57.855 112.182 56.9093 112.182 56.326 111.599L48.0791 103.352C47.4958 102.769 47.4958 101.823 48.0791 101.24Z" stroke="white" stroke-width="3"/>
<path d="M93.5556 55.7189L93.5553 55.7192C93.1838 56.0906 92.7427 56.385 92.2574 56.5859C91.7722 56.7866 91.2523 56.8899 90.7273 56.8897L93.5556 55.7189ZM93.5556 55.7189L101.22 48.0546C101.22 48.0542 101.221 48.0538 101.221 48.0534C101.502 47.7743 101.882 47.6177 102.278 47.6177C102.674 47.6177 103.054 47.7743 103.335 48.0533C103.336 48.0538 103.336 48.0542 103.337 48.0546L111.608 56.326C111.609 56.3264 111.609 56.3269 111.61 56.3274C111.888 56.6084 112.045 56.9883 112.045 57.3843C112.045 57.7798 111.889 58.1592 111.611 58.4401C111.61 58.441 111.609 58.4418 111.608 58.4427L103.338 66.6517L103.332 66.6579C103.194 66.7967 103.03 66.9068 102.849 66.9819C102.668 67.057 102.474 67.0957 102.278 67.0957C102.083 67.0957 101.889 67.057 101.708 66.9819C101.527 66.9068 101.363 66.7967 101.225 66.6579L101.222 66.6557L93.5556 58.9888L93.5553 58.9885M93.5556 55.7189L93.5553 58.9885M66.1042 55.7193L66.1038 55.7189L58.4395 48.0546C58.4391 48.0542 58.4388 48.0539 58.4384 48.0535C58.1573 47.7744 57.7773 47.6177 57.3811 47.6177C56.985 47.6177 56.6049 47.7743 56.3239 48.0535C56.3235 48.0539 56.3231 48.0542 56.3227 48.0546L48.0785 56.2989C48.0781 56.2992 48.0777 56.2996 48.0774 56.3C47.7982 56.581 47.6415 56.9611 47.6415 57.3573C47.6415 57.7534 47.7982 58.1334 48.0772 58.4144C48.0776 58.4148 48.078 58.4152 48.0785 58.4156L56.3248 66.6552L56.3275 66.6579C56.4657 66.7967 56.6299 66.9068 56.8107 66.9819C56.9915 67.057 57.1853 67.0957 57.3811 67.0957C57.5769 67.0957 57.7708 67.057 57.9516 66.9819C58.1324 66.9068 58.2966 66.7967 58.4347 66.6579L58.437 66.6557L66.1038 58.9888L66.1042 58.9885C66.4757 58.6172 66.9167 58.3227 67.4021 58.1219C67.8872 57.9211 68.4072 57.8179 68.9322 57.818L66.1042 55.7193ZM66.1042 55.7193C66.4757 56.0906 66.9167 56.385 67.4021 56.5859C67.8872 56.7866 68.4072 56.8899 68.9322 56.8897C68.9324 56.8897 68.9326 56.8897 68.9328 56.8897M66.1042 55.7193L68.9328 56.8897M93.5553 58.9885C93.1838 58.6172 92.7427 58.3227 92.2574 58.1219C91.7722 57.9211 91.2523 57.8179 90.7273 57.818C90.727 57.818 90.7268 57.818 90.7266 57.818M93.5553 58.9885L90.7266 57.818M68.9328 56.8897H90.7266H68.9328ZM90.7266 57.818H68.9328H90.7266Z" stroke="white" stroke-width="3"/>
<path d="M80.9558 70.4779L80.9535 70.4756C80.8154 70.3369 80.6512 70.2268 80.4704 70.1517C80.2896 70.0765 80.0957 70.0379 79.9 70.0379C79.7042 70.0379 79.5103 70.0765 79.3295 70.1517C79.1487 70.2268 78.9845 70.3369 78.8464 70.4756L78.8441 70.4779L71.1772 78.1447L71.1769 78.145C70.4292 78.8923 69.4161 79.3131 68.3591 79.3155L68.3556 79.3155L46.4258 79.3155C46.4256 79.3155 46.4254 79.3155 46.4251 79.3155C45.9001 79.3157 45.3802 79.2124 44.895 79.0117C44.4096 78.8108 43.9686 78.5163 43.5971 78.145L43.5953 78.1432L36.4308 70.9584L80.9558 70.4779ZM80.9558 70.4779L89.1958 78.7179C89.1963 78.7183 89.1967 78.7187 89.1971 78.7192C89.4762 79.0002 89.6328 79.3802 89.6328 79.7763C89.6328 80.1721 89.4763 80.5519 89.1976 80.8329C89.197 80.8335 89.1964 80.8341 89.1958 80.8347L80.9516 89.0789C80.951 89.0795 80.9504 89.0801 80.9498 89.0807C80.6688 89.3594 80.289 89.5159 79.8932 89.5159C79.4973 89.5159 79.1176 89.3594 78.8366 89.0807C78.836 89.0801 78.8354 89.0795 78.8348 89.0789L71.1705 81.4146L71.1702 81.4143C70.4225 80.667 69.4094 80.2462 68.3523 80.2438H68.3489L46.5267 80.2438L46.524 80.2438C45.4658 80.2457 44.4512 80.6656 43.7011 81.4119L43.6984 81.4146L35.9773 89.1356L35.975 89.1379C35.8369 89.2767 35.6727 89.3867 35.4919 89.4619C35.3111 89.537 35.1172 89.5757 34.9215 89.5757C34.7257 89.5757 34.5318 89.537 34.351 89.4619C34.1702 89.3867 34.006 89.2767 33.8679 89.1379L33.8656 89.1356L25.6231 80.8931L25.6208 80.8908C25.482 80.7527 25.372 80.5885 25.2968 80.4077C25.2217 80.2269 25.183 80.033 25.183 79.8372C25.183 79.6414 25.2217 79.4476 25.2968 79.2668C25.372 79.086 25.482 78.9218 25.6208 78.7836L25.6235 78.7809L33.1344 71.2632C33.5058 70.8917 33.8002 70.4506 34.0011 69.9653C34.2018 69.4801 34.3051 68.9602 34.3049 68.4351C34.3049 68.4349 34.3049 68.4347 34.3049 68.4345L34.305 46.3286L34.3049 46.3251C34.3025 45.2684 33.8819 44.2555 33.1351 43.5079C33.1349 43.5077 33.1347 43.5075 33.1344 43.5073L25.6308 35.99L25.6276 35.9868C25.4888 35.8487 25.3787 35.6845 25.3036 35.5037L23.9345 36.0725L25.3036 35.5037C25.2285 35.3229 25.1898 35.129 25.1898 34.9332C25.1898 34.7375 25.2285 34.5436 25.3036 34.3628C25.3787 34.182 25.4888 34.0178 25.6276 33.8797L25.6298 33.8774L33.8724 25.6348L33.8746 25.6326C34.0128 25.4938 34.177 25.3837 34.3578 25.3086L33.7823 23.9234L34.3578 25.3086C34.5386 25.2335 34.7324 25.1948 34.9282 25.1948C35.124 25.1948 35.3179 25.2335 35.4987 25.3086C35.6795 25.3837 35.8437 25.4938 35.9818 25.6326L35.9841 25.6348L43.651 33.3017L43.6513 33.302C44.0228 33.6733 44.4638 33.9678 44.9492 34.1686C45.4343 34.3694 45.9543 34.4726 46.4793 34.4725C46.4795 34.4725 46.4797 34.4725 46.48 34.4725L68.2811 34.4725L68.2839 34.4725C69.3421 34.4706 70.3567 34.0507 71.1068 33.3044L71.1095 33.3017L78.7764 25.6348L78.7786 25.6326C78.9168 25.4938 79.081 25.3837 79.2618 25.3086C79.4426 25.2335 79.6364 25.1948 79.8322 25.1948C80.028 25.1948 80.2219 25.2335 80.4027 25.3086C80.5835 25.3837 80.7477 25.4938 80.8858 25.6326L80.8894 25.6361L89.1523 33.8787L89.1532 33.8796C89.292 34.0178 89.4021 34.182 89.4772 34.3628C89.5523 34.5436 89.591 34.7374 89.591 34.9332C89.591 35.129 89.5523 35.3229 89.4772 35.5037C89.4021 35.6845 89.292 35.8487 89.1532 35.9868L89.1505 35.9895L80.9109 44.2359C80.9105 44.2364 80.91 44.2369 80.9095 44.2373M80.9558 70.4779L80.9095 44.2373M80.9095 44.2373C80.6285 44.5163 80.2485 44.6728 79.8526 44.6728C79.4565 44.6728 79.0765 44.5162 78.7954 44.2372C78.795 44.2367 78.7946 44.2363 78.7942 44.2359L71.1298 36.5716L71.1271 36.5689C70.377 35.8225 69.3624 35.4027 68.3042 35.4008H68.3015H46.4997H46.4996C45.9749 35.4008 45.4554 35.5044 44.9708 35.7057L45.5462 37.0909L44.9708 35.7057C44.4869 35.9067 44.0474 36.2011 43.6774 36.5722C43.6769 36.5727 43.6765 36.5732 43.676 36.5736L36.4316 43.8112L36.4308 43.8121C36.0595 44.1836 35.765 44.6246 35.5642 45.11C35.3634 45.5951 35.2602 46.1151 35.2603 46.6401C35.2603 46.6403 35.2603 46.6405 35.2603 46.6407V68.1297L80.9095 44.2373ZM35.5642 69.6605C35.7648 70.1454 36.0589 70.586 36.4296 70.9572L35.2603 68.1304C35.2602 68.6554 35.3634 69.1754 35.5642 69.6605Z" stroke="white" stroke-width="3"/>
<path d="M3.17745 56.3252L11.4243 48.0783C12.0076 47.4951 12.9533 47.4951 13.5366 48.0783L21.7835 56.3252C22.3668 56.9085 22.3668 57.8542 21.7835 58.4375L13.5366 66.6844C12.9533 67.2676 12.0076 67.2676 11.4243 66.6844L3.17746 58.4375C2.59417 57.8542 2.59417 56.9085 3.17745 56.3252Z" stroke="white" stroke-width="3"/>
</svg>
