<svg width="215" height="55" viewBox="0 0 215 55" fill="none" xmlns="http://www.w3.org/2000/svg">
<g clip-path="url(#clip0_22_15)">
<path d="M66 17.8882H70.1347V28.7223H73.1262V17.8882H77.2631V15.1302H66V17.8882Z" fill="#0173AF"/>
<path d="M86.2732 22.9078V28.7134H89.2243V21.9757C89.2243 19.5861 87.9239 18.1106 85.6893 18.1106C84.1958 18.1106 83.3221 18.9079 82.6416 19.7815V14.5464H79.6905V28.7224H82.6483V22.9078C82.6483 21.5086 83.367 20.7922 84.4922 20.7922C85.6174 20.7922 86.2732 21.5176 86.2732 22.9078Z" fill="#0173AF"/>
<path d="M96.429 18.1196C93.3994 18.1196 91.2838 20.5676 91.2838 23.5389V23.5816C91.2838 26.7663 93.5948 28.9717 96.721 28.9717C98.6031 28.9717 100.002 28.2328 100.972 27.029L99.2836 25.5355C98.4683 26.2924 97.7496 26.6023 96.7592 26.6023C95.4386 26.6023 94.5133 25.9038 94.2146 24.563H101.458C101.478 24.2913 101.498 24.1139 101.498 23.8264V23.786C101.498 20.8192 99.9057 18.1196 96.429 18.1196ZM94.1832 22.7035C94.4078 21.3559 95.2118 20.489 96.429 20.489C97.6463 20.489 98.4503 21.3874 98.6233 22.7035H94.1832Z" fill="#0173AF"/>
<path d="M120.177 26.0632H112.799V23.2087H119.207V20.5473H112.799V17.7894H120.08V15.1302H109.828V28.7223H120.177V26.0632Z" fill="#0173AF"/>
<path d="M128.527 18.1196C127.033 18.1196 126.16 18.9169 125.479 19.7906V18.315H122.528V28.7224H125.479V22.9078C125.479 21.5087 126.198 20.7922 127.323 20.7922C128.448 20.7922 129.12 21.5087 129.12 22.9078V28.7134H132.058V21.9758C132.058 19.5952 130.762 18.1196 128.527 18.1196Z" fill="#0173AF"/>
<path d="M139.673 26.4115C138.063 26.4115 137.034 25.1313 137.034 23.539V23.4986C137.034 21.9647 138.081 20.6643 139.559 20.6643C140.605 20.6643 141.266 21.1135 141.926 21.8097L143.723 19.8693C142.752 18.78 141.528 18.1197 139.568 18.1197C138.85 18.1046 138.137 18.2341 137.471 18.5006C136.804 18.7672 136.199 19.1652 135.689 19.671C135.18 20.1768 134.778 20.7799 134.507 21.4445C134.236 22.1091 134.102 22.8214 134.113 23.539V23.5817C134.102 24.2947 134.235 25.0025 134.504 25.6629C134.773 26.3233 135.172 26.9229 135.678 27.4258C136.183 27.9288 136.785 28.3248 137.447 28.5904C138.108 28.856 138.817 28.9857 139.53 28.9718C141.607 28.9718 142.773 28.1745 143.781 27.0695L142.054 25.32C141.344 25.9848 140.664 26.4115 139.673 26.4115Z" fill="#0173AF"/>
<path d="M148.677 20.4125V18.3149H145.715V28.7223H148.677V24.8773C148.677 22.3934 149.881 21.2076 151.841 21.2076H151.996V18.1195C150.249 18.0431 149.268 18.9752 148.677 20.4125Z" fill="#0173AF"/>
<path d="M159.733 28.9717L163.724 18.3151H160.665L158.395 25.403L156.025 18.3151H152.899L156.987 28.7606C156.733 29.2862 156.461 29.4344 155.956 29.4344C155.507 29.4062 155.073 29.2656 154.694 29.0256L153.703 31.1637C154.488 31.6461 155.392 31.8983 156.313 31.8914C158.083 31.8914 158.938 31.0919 159.733 28.9717Z" fill="#0173AF"/>
<path d="M171.677 18.1196C170.143 18.1196 169.153 18.8383 168.434 19.8108V18.315H165.483V31.8307H168.441V27.3637C168.822 27.8583 169.314 28.2566 169.877 28.5265C170.441 28.7964 171.059 28.9304 171.684 28.9178C174.154 28.9178 176.42 27.0133 176.42 23.5389V23.4985C176.414 20.0241 174.105 18.1196 171.677 18.1196ZM173.474 23.5389C173.474 25.2862 172.31 26.4114 170.931 26.4114C169.552 26.4114 168.407 25.266 168.407 23.5389V23.4985C168.407 21.7714 169.552 20.626 170.931 20.626C172.31 20.626 173.474 21.7714 173.474 23.4985V23.5389Z" fill="#0173AF"/>
<path d="M179.075 25.7715C179.075 28.1791 180.299 28.8977 182.104 28.8977C182.922 28.9205 183.73 28.7127 184.436 28.2981V25.9264C183.989 26.1707 183.487 26.2975 182.978 26.2948C182.318 26.2948 182.026 25.9646 182.026 25.2864V20.8395H184.474V18.3152H182.026V15.6538H179.075V18.3152H177.833V20.8395H179.075V25.7715Z" fill="#0173AF"/>
<path d="M197.116 23.5389V23.4985C197.116 20.5092 194.727 18.1196 191.501 18.1196C188.276 18.1196 185.851 20.5474 185.851 23.5389V23.5816C185.851 26.5709 188.238 28.9717 191.466 28.9717C194.693 28.9717 197.116 26.5282 197.116 23.5389ZM188.766 23.5389V23.4985C188.766 21.9646 189.774 20.6642 191.461 20.6642C193.092 20.6642 194.199 22.0117 194.199 23.5389V23.5816C194.199 25.1155 193.188 26.4159 191.504 26.4159C189.873 26.4114 188.766 25.0729 188.766 23.5389Z" fill="#0173AF"/>
<path d="M202.203 20.4125V18.3149H199.252V28.7223H202.203V24.8773C202.203 22.3934 203.407 21.2076 205.367 21.2076H205.525V18.1195C203.775 18.0431 202.803 18.9752 202.203 20.4125Z" fill="#0173AF"/>
<path d="M211.854 22.4316C210.731 22.043 209.738 21.7713 209.738 21.1874V21.1492C209.738 20.7427 210.106 20.4305 210.825 20.4305C211.582 20.4305 212.622 20.8011 213.641 21.403L214.764 19.3637C213.614 18.5991 212.269 18.1813 210.888 18.1599C208.79 18.1599 207.07 19.3435 207.07 21.4613V21.4995C207.07 23.5208 208.721 24.1946 210.178 24.6258C211.324 24.9739 212.334 25.1895 212.334 25.8296V25.8678C212.334 26.3349 211.946 26.6448 211.09 26.6448C210.12 26.6448 208.934 26.2181 207.809 25.4029L206.547 27.3433C207.819 28.3494 209.391 28.9026 211.014 28.9154C213.259 28.9154 214.993 27.8666 214.993 25.5466V25.5084C215 23.6151 213.311 22.9077 211.854 22.4316Z" fill="#0173AF"/>
<path d="M68.3196 36.8504C68.0671 36.8 67.8182 36.7332 67.5744 36.6503C67.4131 36.5944 67.2607 36.5153 67.1221 36.4154C67.0219 36.3403 66.943 36.2404 66.8931 36.1255C66.85 36.0125 66.8284 35.8926 66.8293 35.7717C66.8293 35.6489 66.8581 35.5277 66.9134 35.418C66.968 35.3043 67.0484 35.2051 67.1482 35.128C67.259 35.0442 67.3836 34.9804 67.5165 34.9396C67.6718 34.8891 67.8344 34.8646 67.9978 34.8671C68.2746 34.8669 68.5493 34.9149 68.8097 35.0091C69.0907 35.116 69.3515 35.27 69.5809 35.4644L69.9434 34.9859C69.6809 34.775 69.3875 34.6058 69.0735 34.4843C68.737 34.3738 68.3837 34.3228 68.0297 34.3336C67.7844 34.3311 67.5404 34.3693 67.3077 34.4466C67.0969 34.5162 66.9005 34.6232 66.7278 34.7627C66.5694 34.8911 66.4408 35.0524 66.3508 35.2353C66.2605 35.4244 66.2148 35.6318 66.2175 35.8413C66.2132 36.0458 66.2507 36.2491 66.3276 36.4386C66.4038 36.609 66.519 36.759 66.664 36.8764C66.8377 37.0158 67.0338 37.1246 67.2439 37.1983C67.5107 37.2984 67.7851 37.3769 68.0645 37.4332C68.3051 37.4843 68.5423 37.5501 68.7749 37.6303C68.9309 37.6836 69.0776 37.7609 69.2098 37.8594C69.3075 37.935 69.3835 38.035 69.4302 38.1493C69.475 38.2597 69.4967 38.3782 69.4939 38.4973C69.4975 38.6298 69.4691 38.7611 69.411 38.8803C69.353 38.9994 69.267 39.1028 69.1605 39.1816C68.9009 39.3645 68.5875 39.4553 68.2703 39.4396C67.9234 39.4462 67.5789 39.3811 67.2584 39.2483C66.9387 39.1038 66.6449 38.9079 66.3885 38.6684L66 39.1033C66.3031 39.384 66.6549 39.6071 67.038 39.7615C67.4223 39.9068 67.8305 39.9786 68.2413 39.9732C68.4969 39.9765 68.7513 39.9393 68.9952 39.863C69.207 39.7973 69.404 39.6909 69.5751 39.5498C69.7414 39.4113 69.8747 39.2374 69.965 39.0407C70.0553 38.844 70.1004 38.6296 70.097 38.4132C70.1064 38.2247 70.072 38.0365 69.9966 37.8635C69.9211 37.6904 69.8066 37.5372 69.6621 37.4158C69.2635 37.1275 68.8043 36.9341 68.3196 36.8504Z" fill="#0173AF"/>
<path d="M76.6673 35.1574C76.4207 34.8972 76.1251 34.6883 75.7975 34.5427C75.4353 34.3924 75.0471 34.3151 74.655 34.3151C74.263 34.3151 73.8748 34.3924 73.5126 34.5427C73.1793 34.6896 72.8787 34.9016 72.6283 35.1661C72.3789 35.4289 72.182 35.7369 72.0484 36.0736C71.9119 36.4188 71.843 36.7869 71.8454 37.1581C71.8436 37.5289 71.9115 37.8967 72.0455 38.2425C72.1735 38.5793 72.3678 38.887 72.6168 39.1475C72.8658 39.408 73.1645 39.6159 73.4952 39.759C73.8544 39.9157 74.2429 39.9938 74.6348 39.988C75.0287 39.9928 75.4191 39.9137 75.7801 39.7561C76.1139 39.6101 76.4148 39.3981 76.6644 39.1327C76.9138 38.871 77.1106 38.5638 77.2443 38.228C77.3811 37.8819 77.45 37.5128 77.4473 37.1407C77.4491 36.7699 77.3812 36.402 77.2472 36.0562C77.1153 35.7212 76.9182 35.4157 76.6673 35.1574ZM76.6325 38.0424C76.5316 38.3072 76.381 38.5503 76.1889 38.7586C75.9987 38.9652 75.7676 39.1301 75.5104 39.2428C75.236 39.3615 74.9395 39.4208 74.6405 39.4168C74.3409 39.4214 74.044 39.36 73.7707 39.237C73.5129 39.1223 73.2803 38.9578 73.0864 38.7528C72.8902 38.5438 72.7365 38.2986 72.6341 38.0308C72.5261 37.7476 72.472 37.4467 72.4746 37.1436C72.4735 36.8462 72.5276 36.5513 72.6341 36.2737C72.7357 36.0093 72.8862 35.7663 73.0777 35.5575C73.2682 35.352 73.4992 35.1881 73.7562 35.0762C74.0308 34.9573 74.3268 34.896 74.6261 34.896C74.9253 34.896 75.2213 34.9573 75.4959 35.0762C75.7557 35.1921 75.9899 35.3584 76.185 35.5655C76.3801 35.7725 76.5322 36.0162 76.6325 36.2824C76.7402 36.5657 76.7943 36.8666 76.792 37.1697C76.7935 37.468 76.7394 37.7639 76.6325 38.0424Z" fill="#0173AF"/>
<path d="M82.9448 39.2108C82.6422 39.3562 82.3091 39.4268 81.9735 39.4167C81.684 39.4193 81.3973 39.36 81.1326 39.2427C80.8773 39.1281 80.6475 38.9635 80.457 38.7585C80.263 38.55 80.1113 38.3057 80.0105 38.0394C79.9023 37.7532 79.8482 37.4494 79.851 37.1434C79.8479 36.8403 79.9021 36.5393 80.0105 36.2562C80.112 35.9901 80.2636 35.746 80.457 35.5371C80.6502 35.3287 80.8851 35.1632 81.1463 35.0513C81.4075 34.9394 81.6893 34.8837 81.9735 34.8876C82.3087 34.8779 82.6413 34.9505 82.9419 35.0992C83.2127 35.2459 83.4632 35.4272 83.6871 35.6386L84.1104 35.1862C83.977 35.0585 83.8356 34.9394 83.6871 34.8296C83.5385 34.7161 83.3781 34.6189 83.2087 34.5396C83.0284 34.4626 82.8409 34.4033 82.6491 34.3628C82.4254 34.3203 82.1982 34.2999 81.9706 34.3019C81.5878 34.2968 81.2083 34.3729 80.8571 34.5251C80.5288 34.6681 80.2329 34.8763 79.9873 35.1369C79.7377 35.3985 79.5408 35.7056 79.4074 36.0416C79.129 36.7548 79.129 37.5466 79.4074 38.2597C79.5395 38.5938 79.7366 38.8984 79.9873 39.1557C80.2346 39.4114 80.5303 39.6154 80.8571 39.7559C81.2044 39.9041 81.5785 39.9792 81.9561 39.9763C82.1853 39.9791 82.414 39.9548 82.6375 39.9038C82.8374 39.8607 83.0319 39.7956 83.2174 39.7095C83.3928 39.6297 83.5599 39.5326 83.7161 39.4196C83.8736 39.2983 84.0218 39.1655 84.1597 39.0223L83.7509 38.6222C83.5131 38.8575 83.2414 39.0559 82.9448 39.2108Z" fill="#0173AF"/>
<path d="M91.4812 37.5233H93.1514V38.8919C92.9406 39.0585 92.7047 39.1906 92.4526 39.2833C92.1703 39.3913 91.8704 39.4454 91.5682 39.4428C91.259 39.4489 90.9519 39.3906 90.6665 39.2717C90.4084 39.1616 90.1763 38.9986 89.9851 38.7933C89.7929 38.5823 89.645 38.3348 89.5501 38.0655C89.4442 37.7728 89.3922 37.4634 89.3965 37.1522C89.3953 36.8551 89.4484 36.5603 89.553 36.2823C89.6517 36.0181 89.7981 35.7744 89.9851 35.5632C90.1695 35.3582 90.3933 35.1926 90.6433 35.0761C90.9059 34.955 91.1921 34.8936 91.4812 34.8963C91.6582 34.8944 91.835 34.9099 92.0089 34.9427C92.1597 34.9719 92.3073 35.0156 92.4497 35.0732C92.5794 35.1257 92.7037 35.1907 92.8208 35.2675C92.9365 35.3451 93.047 35.4303 93.1514 35.5226L93.5515 35.0529C93.4186 34.94 93.2781 34.8364 93.1311 34.7427C92.9846 34.6508 92.8291 34.5741 92.6671 34.5136C92.4956 34.4482 92.3178 34.4006 92.1365 34.3715C91.9274 34.3388 91.716 34.3233 91.5044 34.3251C91.1173 34.3194 90.7335 34.3975 90.3794 34.5542C90.0511 34.7025 89.7555 34.9144 89.5095 35.1776C89.2682 35.4438 89.0784 35.7525 88.9499 36.088C88.8165 36.4329 88.7486 36.7997 88.7499 37.1696C88.7468 37.5466 88.8127 37.9209 88.9441 38.2743C89.0643 38.6114 89.2539 38.9195 89.5006 39.1787C89.7473 39.438 90.0457 39.6425 90.3765 39.7792C90.7444 39.9297 91.1388 40.0046 91.5363 39.9995C91.9674 40.0053 92.3949 39.9214 92.7918 39.7531C93.1353 39.6104 93.4543 39.4148 93.7371 39.1732V36.9724H91.4725L91.4812 37.5233Z" fill="#0173AF"/>
<path d="M99.2953 37.4685C99.4702 37.3843 99.6299 37.2716 99.7679 37.1351C99.9021 37.0012 100.008 36.8413 100.078 36.6653C100.154 36.4684 100.191 36.2587 100.188 36.0477C100.191 35.8167 100.143 35.5878 100.046 35.3779C99.9541 35.1784 99.8183 35.002 99.649 34.8618C99.4644 34.7119 99.2528 34.5987 99.0256 34.5284C98.7599 34.4463 98.4831 34.4062 98.205 34.4095H95.8477V39.8954H96.4653V37.7643H98.034L99.6229 39.8954H100.385L98.698 37.657C98.905 37.6228 99.1061 37.5593 99.2953 37.4685ZM96.4653 37.2162V34.9807H98.1616C98.5302 34.9589 98.8956 35.0609 99.1996 35.2707C99.321 35.3657 99.4179 35.4885 99.482 35.6288C99.5461 35.7691 99.5755 35.9227 99.5678 36.0767C99.5707 36.2431 99.535 36.4078 99.4634 36.5581C99.3956 36.6977 99.2964 36.8198 99.1735 36.9147C99.04 37.0172 98.8886 37.0939 98.727 37.1409C98.5387 37.1958 98.3432 37.2222 98.147 37.2191L96.4653 37.2162Z" fill="#0173AF"/>
<path d="M104.248 34.3712L101.748 39.8948H102.383L103.033 38.4451H106.014L106.657 39.8948H107.324L104.822 34.3712H104.248ZM103.276 37.8971L104.532 35.099L105.776 37.8971H103.276Z" fill="#0173AF"/>
<path d="M113.126 35.2038C112.859 34.952 112.544 34.755 112.201 34.6239C111.824 34.4816 111.424 34.4108 111.021 34.4151H109.116V39.901H111.021C111.424 39.9057 111.825 39.8339 112.201 39.6894C112.544 39.5579 112.858 39.361 113.126 39.1095C113.385 38.8652 113.588 38.5687 113.724 38.2396C114.006 37.5442 114.006 36.7662 113.724 36.0707C113.587 35.7433 113.383 35.448 113.126 35.2038ZM113.126 38.0279C113.022 38.2842 112.867 38.5169 112.671 38.7122C112.467 38.9138 112.223 39.0699 111.955 39.1703C111.655 39.2839 111.336 39.3399 111.015 39.3356H109.728V34.9863H111.015C111.337 34.9824 111.656 35.0404 111.955 35.1574C112.218 35.2594 112.457 35.4152 112.657 35.6149C112.857 35.8146 113.013 36.0538 113.115 36.3172C113.331 36.8669 113.331 37.4782 113.115 38.0279H113.126Z" fill="#0173AF"/>
<path d="M119.815 37.5988C119.834 37.8435 119.803 38.0893 119.726 38.3222C119.649 38.5551 119.527 38.7705 119.366 38.9558C119.028 39.2532 118.591 39.4153 118.141 39.411C117.69 39.4067 117.257 39.2364 116.925 38.9326C116.609 38.5479 116.451 38.0576 116.484 37.5611V34.4093H115.872V37.5988C115.866 37.9481 115.921 38.2957 116.037 38.6252C116.136 38.9068 116.295 39.1632 116.504 39.3762C116.708 39.5781 116.953 39.7326 117.223 39.8285C117.829 40.0344 118.485 40.0344 119.091 39.8285C119.362 39.7309 119.609 39.5745 119.813 39.3704C120.021 39.1546 120.18 38.8952 120.276 38.6107C120.393 38.2702 120.449 37.9121 120.442 37.5524V34.4093H119.815V37.5988Z" fill="#0173AF"/>
<path d="M124.437 34.3712L121.938 39.8948H122.573L123.222 38.4451H126.209L126.853 39.8948H127.52L125.017 34.3712H124.437ZM123.466 37.8971L124.722 35.099L125.965 37.8971H123.466Z" fill="#0173AF"/>
<path d="M128.21 34.9805H130.051V39.8952H130.668V34.9805H132.512V34.4093H128.21V34.9805Z" fill="#0173AF"/>
<path d="M135.058 34.4093H134.438V39.8952H135.058V34.4093Z" fill="#0173AF"/>
<path d="M141.408 38.8079L137.949 34.4093H137.369V39.8952H137.975V35.398L141.516 39.8952H142.012V34.4093H141.408V38.8079Z" fill="#0173AF"/>
<path d="M146.752 37.5235H148.422V38.8921C148.212 39.0587 147.976 39.1908 147.724 39.2835C147.441 39.3915 147.141 39.4456 146.839 39.443C146.53 39.449 146.223 39.3908 145.937 39.2719C145.679 39.1618 145.447 38.9988 145.256 38.7935C145.064 38.5824 144.916 38.335 144.821 38.0657C144.717 37.7727 144.665 37.4635 144.667 37.1524C144.666 36.8553 144.719 36.5605 144.824 36.2825C144.923 36.0183 145.069 35.7746 145.256 35.5634C145.441 35.3591 145.665 35.1935 145.914 35.0763C146.177 34.9555 146.463 34.8941 146.752 34.8965C146.93 34.8946 147.108 34.9101 147.283 34.9429C147.433 34.9725 147.579 35.0162 147.721 35.0734C147.85 35.1259 147.975 35.1909 148.092 35.2677C148.207 35.3453 148.318 35.4305 148.422 35.5228L148.822 35.0531C148.69 34.9402 148.549 34.8366 148.402 34.7428C148.256 34.6516 148.102 34.5749 147.941 34.5138C147.768 34.4484 147.59 34.4008 147.407 34.3717C147.198 34.339 146.987 34.3235 146.775 34.3253C146.402 34.3182 146.032 34.3905 145.689 34.5375C145.346 34.6844 145.038 34.9027 144.786 35.1778C144.543 35.4429 144.352 35.7519 144.224 36.0882C144.09 36.4331 144.022 36.7999 144.024 37.1698C144.021 37.5468 144.087 37.9211 144.218 38.2745C144.339 38.611 144.529 38.9185 144.776 39.1776C145.022 39.4367 145.32 39.6416 145.65 39.7793C146.018 39.9298 146.413 40.0048 146.81 39.9997C147.242 40.0052 147.671 39.9212 148.069 39.7532C148.411 39.6099 148.729 39.4143 149.011 39.1733V36.9726H146.752V37.5235Z" fill="#0173AF"/>
<path d="M157.669 39.2108C157.366 39.3562 157.033 39.4268 156.697 39.4167C156.408 39.4193 156.121 39.36 155.857 39.2427C155.601 39.1281 155.371 38.9635 155.181 38.7585C154.987 38.55 154.835 38.3057 154.734 38.0394C154.626 37.7532 154.572 37.4494 154.575 37.1434C154.572 36.8403 154.626 36.5393 154.734 36.2562C154.836 35.9901 154.988 35.746 155.181 35.5371C155.374 35.3287 155.609 35.1632 155.87 35.0513C156.131 34.9394 156.413 34.8837 156.697 34.8876C157.033 34.8779 157.365 34.9505 157.666 35.0992C157.941 35.245 158.195 35.4263 158.423 35.6386L158.846 35.1862C158.713 35.0585 158.571 34.9394 158.423 34.8296C158.274 34.7154 158.114 34.6181 157.944 34.5396C157.764 34.4621 157.577 34.4029 157.385 34.3628C157.161 34.3203 156.934 34.2999 156.706 34.3019C156.323 34.2968 155.944 34.3729 155.593 34.5251C155.264 34.6681 154.968 34.8763 154.723 35.1369C154.473 35.3985 154.276 35.7056 154.143 36.0416C153.865 36.7548 153.865 37.5466 154.143 38.2597C154.275 38.5938 154.472 38.8984 154.723 39.1557C154.97 39.4114 155.266 39.6154 155.593 39.7559C155.94 39.9041 156.314 39.9792 156.692 39.9763C156.921 39.9791 157.15 39.9548 157.373 39.9038C157.761 39.8178 158.126 39.6486 158.443 39.408C158.6 39.2867 158.749 39.1539 158.887 39.0107L158.478 38.6106C158.24 38.8502 157.967 39.0526 157.669 39.2108Z" fill="#0173AF"/>
<path d="M161.285 34.4093H160.664V39.8952H164.373V39.324H161.285V34.4093Z" fill="#0173AF"/>
<path d="M168.252 34.3712L165.744 39.8948H166.379L167.031 38.4451H170.015L170.659 39.8948H171.326L168.826 34.3712H168.252ZM167.278 37.8971L168.533 35.099L169.78 37.8971H167.278Z" fill="#0173AF"/>
<path d="M174.976 36.8505C174.724 36.8005 174.475 36.7337 174.231 36.6504C174.069 36.5945 173.915 36.5154 173.776 36.4155C173.676 36.3411 173.597 36.2409 173.55 36.1256C173.505 36.013 173.484 35.8928 173.486 35.7718C173.486 35.6485 173.515 35.527 173.571 35.4168C173.626 35.3067 173.706 35.2108 173.805 35.1368C173.916 35.053 174.04 34.9892 174.173 34.9484C174.328 34.8977 174.491 34.8732 174.654 34.8759C174.931 34.8761 175.206 34.9242 175.466 35.018C175.747 35.1248 176.008 35.2788 176.238 35.4732L176.597 34.9948C176.335 34.7836 176.041 34.6144 175.727 34.4931C175.388 34.3767 175.031 34.3208 174.672 34.3279C174.427 34.3251 174.184 34.3633 173.953 34.4409C173.742 34.5115 173.546 34.6184 173.373 34.757C173.212 34.8866 173.083 35.051 172.995 35.2379C172.907 35.4247 172.863 35.6291 172.865 35.8356C172.86 36.0403 172.897 36.2438 172.976 36.4329C173.052 36.6033 173.167 36.7533 173.312 36.8708C173.485 37.0104 173.682 37.1193 173.892 37.1926C174.159 37.2919 174.433 37.3705 174.712 37.4275C174.954 37.4786 175.192 37.5445 175.426 37.6246C175.582 37.6779 175.728 37.7552 175.861 37.8537C175.957 37.9301 176.033 38.0299 176.081 38.1437C176.124 38.2545 176.146 38.3726 176.145 38.4916C176.148 38.624 176.119 38.7552 176.061 38.8743C176.003 38.9933 175.918 39.0967 175.811 39.1759C175.552 39.3588 175.238 39.4496 174.921 39.434C174.574 39.4408 174.23 39.3756 173.909 39.2426C173.589 39.0988 173.295 38.9028 173.039 38.6627L172.657 39.1179C172.959 39.3992 173.311 39.6223 173.695 39.7761C174.079 39.9217 174.487 39.9935 174.898 39.9878C175.153 39.9911 175.406 39.9539 175.649 39.8776C175.861 39.8116 176.058 39.7052 176.229 39.5644C176.395 39.4259 176.528 39.252 176.619 39.0553C176.709 38.8586 176.754 38.6442 176.751 38.4278C176.76 38.2393 176.726 38.0511 176.65 37.8781C176.575 37.705 176.46 37.5518 176.316 37.4304C175.919 37.1374 175.461 36.939 174.976 36.8505Z" fill="#0173AF"/>
<path d="M180.619 36.8506C180.366 36.8007 180.117 36.7338 179.874 36.6506C179.712 36.594 179.558 36.5149 179.418 36.4157C179.319 36.3405 179.241 36.2405 179.192 36.1257C179.149 36.0128 179.128 35.8928 179.128 35.772C179.128 35.6491 179.157 35.528 179.213 35.4183C179.267 35.3046 179.348 35.2053 179.447 35.1283C179.558 35.0444 179.683 34.9806 179.816 34.9398C179.971 34.8891 180.134 34.8646 180.297 34.8673C180.574 34.8674 180.848 34.9154 181.109 35.0094C181.39 35.1163 181.651 35.2702 181.88 35.4646L182.243 34.9862C181.98 34.7753 181.687 34.6061 181.373 34.4846C181.034 34.3682 180.678 34.3122 180.32 34.3193C180.075 34.3166 179.831 34.3548 179.598 34.4324C179.387 34.5019 179.191 34.609 179.018 34.7485C178.856 34.8773 178.726 35.0415 178.638 35.2285C178.549 35.4155 178.505 35.6203 178.508 35.8271C178.504 36.0316 178.541 36.2348 178.618 36.4244C178.694 36.5948 178.809 36.7448 178.954 36.8622C179.128 37.0012 179.324 37.11 179.534 37.1841C179.802 37.2837 180.078 37.3623 180.358 37.4189C180.598 37.47 180.836 37.5359 181.068 37.6161C181.224 37.6693 181.371 37.7466 181.503 37.8452C181.601 37.9207 181.677 38.0208 181.724 38.1351C181.768 38.2455 181.79 38.3639 181.787 38.4831C181.79 38.6155 181.762 38.7467 181.704 38.8657C181.646 38.9848 181.56 39.0882 181.454 39.1674C181.194 39.3502 180.881 39.4411 180.564 39.4254C180.217 39.432 179.872 39.3668 179.552 39.234C179.232 39.0903 178.938 38.8943 178.682 38.6541L178.299 39.1094C178.602 39.3907 178.954 39.6138 179.337 39.7676C179.722 39.9129 180.13 39.9847 180.541 39.9792C180.795 39.9828 181.049 39.9456 181.292 39.869C181.503 39.8036 181.701 39.6972 181.871 39.5559C182.038 39.4174 182.171 39.2434 182.261 39.0468C182.352 38.8501 182.397 38.6357 182.393 38.4193C182.403 38.2307 182.368 38.0426 182.293 37.8695C182.217 37.6965 182.103 37.5433 181.958 37.4218C181.561 37.1319 181.103 36.9366 180.619 36.8506Z" fill="#0173AF"/>
<path d="M192.014 35.1574C191.767 34.8972 191.472 34.6883 191.144 34.5427C190.782 34.3924 190.394 34.3151 190.002 34.3151C189.61 34.3151 189.221 34.3924 188.859 34.5427C188.531 34.6913 188.236 34.9031 187.989 35.1661C187.74 35.4289 187.543 35.7369 187.41 36.0736C187.141 36.7716 187.141 37.5445 187.41 38.2425C187.538 38.5793 187.732 38.887 187.981 39.1475C188.23 39.408 188.529 39.6159 188.859 39.759C189.218 39.9157 189.607 39.9938 189.999 39.988C190.393 39.9928 190.783 39.9137 191.144 39.7561C191.478 39.6094 191.78 39.3975 192.031 39.1327C192.28 38.8703 192.477 38.5634 192.611 38.228C192.748 37.8819 192.817 37.5128 192.814 37.1407C192.816 36.7699 192.748 36.402 192.614 36.0562C192.476 35.7195 192.272 35.4139 192.014 35.1574ZM191.979 38.0424C191.878 38.3072 191.728 38.5503 191.536 38.7586C191.346 38.9642 191.116 39.129 190.86 39.2428C190.585 39.3611 190.289 39.4204 189.99 39.4168C189.691 39.4214 189.394 39.36 189.12 39.237C188.862 39.1223 188.63 38.9578 188.436 38.7528C188.24 38.5438 188.086 38.2986 187.984 38.0308C187.876 37.7476 187.822 37.4467 187.824 37.1436C187.823 36.8462 187.877 36.5513 187.984 36.2737C188.085 36.0093 188.236 35.7663 188.427 35.5575C188.618 35.352 188.849 35.1881 189.106 35.0762C189.38 34.9573 189.676 34.896 189.976 34.896C190.275 34.896 190.571 34.9573 190.846 35.0762C191.105 35.1921 191.34 35.3584 191.535 35.5655C191.73 35.7725 191.882 36.0162 191.982 36.2824C192.09 36.5657 192.144 36.8666 192.142 37.1697C192.142 37.4681 192.087 37.7641 191.979 38.0424Z" fill="#0173AF"/>
<path d="M194.797 39.8952H195.415V37.506H198.387V36.9406H195.415V34.9805H198.738V34.4093H194.797V39.8952Z" fill="#0173AF"/>
<path d="M205.691 38.0304C205.932 37.8217 206.138 37.6303 206.312 37.4505C206.468 37.2936 206.612 37.1239 206.741 36.9431C206.85 36.7904 206.936 36.6223 206.996 36.4444C207.052 36.2643 207.08 36.0764 207.077 35.8877C207.079 35.6734 207.037 35.4611 206.952 35.2643C206.871 35.0771 206.752 34.9091 206.602 34.7713C206.444 34.6295 206.261 34.5193 206.062 34.4466C205.843 34.3656 205.611 34.3253 205.378 34.3277C205.16 34.325 204.942 34.3513 204.731 34.406C204.549 34.4536 204.375 34.5289 204.215 34.6293C204.056 34.7305 203.911 34.8535 203.786 34.9946C203.648 35.1502 203.52 35.3149 203.403 35.4875L203.856 35.8181C204.038 35.549 204.263 35.3119 204.523 35.1164C204.76 34.9529 205.043 34.8687 205.332 34.8757C205.476 34.876 205.619 34.9015 205.755 34.9511C205.885 34.9977 206.004 35.0697 206.106 35.1628C206.204 35.257 206.282 35.3692 206.338 35.4933C206.399 35.6301 206.429 35.7785 206.428 35.9283C206.427 36.0628 206.408 36.1966 206.37 36.3255C206.323 36.4646 206.256 36.5964 206.172 36.7169C206.064 36.8685 205.945 37.0119 205.816 37.1461C205.668 37.2968 205.491 37.4679 205.282 37.6564L203.293 39.4135V39.8919H207.123V39.3294H204.224L205.691 38.0304Z" fill="#0173AF"/>
<path d="M212.05 37.1987C211.875 37.0685 211.679 36.9704 211.47 36.9087C211.245 36.8415 211.013 36.7968 210.78 36.7753L212.496 34.8645V34.4093H209.005V34.9573H211.687L209.947 36.9174L210.072 37.2856H210.423C210.812 37.2691 211.197 37.3647 211.533 37.5611C211.669 37.6429 211.78 37.7595 211.855 37.8987C211.93 38.0379 211.966 38.1947 211.96 38.3527C211.962 38.5006 211.932 38.6472 211.872 38.7824C211.812 38.9176 211.723 39.0381 211.612 39.1356C211.501 39.232 211.372 39.305 211.232 39.3501C211.081 39.4019 210.922 39.4273 210.762 39.4255C210.449 39.433 210.14 39.3601 209.863 39.2138C209.59 39.06 209.349 38.8553 209.153 38.6107L208.706 39.0109C208.934 39.305 209.223 39.5464 209.553 39.7184C209.924 39.9078 210.337 40.0014 210.753 39.9909C210.998 39.993 211.24 39.9517 211.47 39.8691C211.683 39.7936 211.88 39.6774 212.05 39.527C212.212 39.3799 212.344 39.2014 212.435 39.0022C212.533 38.7915 212.582 38.5617 212.58 38.3295C212.586 38.1013 212.535 37.8752 212.432 37.6713C212.34 37.4885 212.209 37.3274 212.05 37.1987Z" fill="#0173AF"/>
<path d="M53.8873 25.7444L28.7672 0.624317C28.366 0.224127 27.8224 -0.000610352 27.2557 -0.000610352C26.689 -0.000610352 26.1455 0.224127 25.7442 0.624317L0.626368 25.7422C0.427605 25.9408 0.269925 26.1766 0.162344 26.4361C0.054763 26.6956 -0.000610352 26.9738 -0.000610352 27.2548C-0.000610352 27.5358 0.054763 27.814 0.162344 28.0735C0.269925 28.333 0.427605 28.5688 0.626368 28.7674L25.7442 53.8853C25.9426 54.084 26.1782 54.2416 26.4376 54.3492C26.6969 54.4567 26.975 54.5121 27.2557 54.5121C27.5365 54.5121 27.8145 54.4567 28.0739 54.3492C28.3332 54.2416 28.5688 54.084 28.7672 53.8853L53.8873 28.7674C54.2875 28.3662 54.5123 27.8226 54.5123 27.2559C54.5123 26.6892 54.2875 26.1457 53.8873 25.7444ZM52.989 27.8735L27.8733 53.0027C27.7065 53.1606 27.4855 53.2486 27.2557 53.2486C27.026 53.2486 26.805 53.1606 26.6381 53.0027L1.52023 27.8735C1.35648 27.7097 1.26449 27.4876 1.26449 27.2559C1.26449 27.0243 1.35648 26.8021 1.52023 26.6383L26.6381 1.52042C26.8019 1.35667 27.0241 1.26468 27.2557 1.26468C27.4874 1.26468 27.7095 1.35667 27.8733 1.52042L53.0025 26.6383C53.1662 26.8021 53.2582 27.0243 53.2582 27.2559C53.2582 27.4876 53.1662 27.7097 53.0025 27.8735H52.989Z" fill="#0173AF"/>
<path d="M26.5557 8.92547L23.821 11.6601C23.4333 12.0478 23.4333 12.6763 23.821 13.064L26.5557 15.7987C26.9433 16.1863 27.5719 16.1863 27.9595 15.7987L30.6942 13.064C31.0819 12.6763 31.0819 12.0478 30.6942 11.6601L27.9595 8.92547C27.5719 8.5378 26.9433 8.5378 26.5557 8.92547Z" fill="#0173AF"/>
<path d="M26.5557 38.7082L23.821 41.4428C23.4333 41.8305 23.4333 42.459 23.821 42.8467L26.5557 45.5814C26.9433 45.969 27.5719 45.969 27.9595 45.5814L30.6942 42.8467C31.0819 42.459 31.0819 41.8305 30.6942 41.4428L27.9595 38.7082C27.5719 38.3205 26.9433 38.3205 26.5557 38.7082Z" fill="#0173AF"/>
<path d="M42.8469 23.806C42.6604 23.6204 42.4081 23.5162 42.1451 23.5162C41.882 23.5162 41.6297 23.6204 41.4432 23.806L38.9009 26.3483C38.8239 26.4252 38.7325 26.4863 38.6319 26.5279C38.5313 26.5695 38.4236 26.5909 38.3147 26.5909H31.0875C30.9786 26.5909 30.8708 26.5695 30.7703 26.5279C30.6697 26.4863 30.5783 26.4252 30.5013 26.3483L27.959 23.806C27.7725 23.6204 27.5202 23.5162 27.2571 23.5162C26.9941 23.5162 26.7417 23.6204 26.5553 23.806L23.8198 26.5414C23.6343 26.7279 23.5301 26.9802 23.5301 27.2433C23.5301 27.5063 23.6343 27.7587 23.8198 27.9451L26.5553 30.6783C26.6473 30.7708 26.7567 30.8441 26.8771 30.8941C26.9976 30.9442 27.1267 30.9699 27.2571 30.9699C27.3876 30.9699 27.5167 30.9442 27.6371 30.8941C27.7576 30.8441 27.8669 30.7708 27.959 30.6783L30.5013 28.136C30.5783 28.0591 30.6697 27.998 30.7703 27.9564C30.8708 27.9148 30.9786 27.8934 31.0875 27.8935H38.3147C38.4236 27.8934 38.5313 27.9148 38.6319 27.9564C38.7325 27.998 38.8239 28.0591 38.9009 28.136L41.4432 30.6783C41.5352 30.7708 41.6446 30.8441 41.7651 30.8941C41.8855 30.9442 42.0146 30.9699 42.1451 30.9699C42.2755 30.9699 42.4046 30.9442 42.525 30.8941C42.6455 30.8441 42.7549 30.7708 42.8469 30.6783L45.5913 27.9541C45.7769 27.7677 45.8811 27.5153 45.8811 27.2523C45.8811 26.9892 45.7769 26.7369 45.5913 26.5504L42.8469 23.806Z" fill="#0173AF"/>
<path d="M35.4264 31.2423C35.3343 31.1499 35.225 31.0766 35.1045 31.0266C34.9841 30.9765 34.855 30.9508 34.7245 30.9508C34.5941 30.9508 34.465 30.9765 34.3445 31.0266C34.2241 31.0766 34.1147 31.1499 34.0227 31.2423L31.4804 33.7847C31.3254 33.9395 31.1155 34.0267 30.8964 34.0272H23.6243C23.5154 34.0273 23.4077 34.0059 23.3071 33.9643C23.2065 33.9226 23.1151 33.8616 23.0381 33.7847L20.662 31.4018C20.585 31.3248 20.524 31.2334 20.4824 31.1328C20.4408 31.0323 20.4194 30.9245 20.4194 30.8156V23.6895C20.4194 23.5806 20.4408 23.4728 20.4824 23.3723C20.524 23.2717 20.585 23.1803 20.662 23.1033L23.0651 20.7024C23.1416 20.6256 23.2326 20.5646 23.3328 20.523C23.433 20.4813 23.5405 20.4599 23.649 20.4599H30.8785C31.0982 20.4603 31.3089 20.5475 31.4646 20.7024L34.007 23.2448C34.1934 23.4303 34.4458 23.5345 34.7088 23.5345C34.9719 23.5345 35.2242 23.4303 35.4106 23.2448L38.1439 20.5093C38.2363 20.4173 38.3096 20.3079 38.3597 20.1875C38.4097 20.067 38.4355 19.9379 38.4355 19.8075C38.4355 19.677 38.4097 19.5479 38.3597 19.4275C38.3096 19.307 38.2363 19.1977 38.1439 19.1056L35.4039 16.3724C35.3119 16.28 35.2025 16.2066 35.0821 16.1566C34.9616 16.1066 34.8325 16.0808 34.7021 16.0808C34.5717 16.0808 34.4425 16.1066 34.3221 16.1566C34.2016 16.2066 34.0923 16.28 34.0002 16.3724L31.4579 18.9147C31.3021 19.0697 31.0915 19.1569 30.8717 19.1573H23.6423C23.5334 19.1573 23.4256 19.1359 23.325 19.0943C23.2245 19.0527 23.1331 18.9917 23.0561 18.9147L20.5137 16.3724C20.4217 16.28 20.3124 16.2066 20.1919 16.1566C20.0715 16.1066 19.9423 16.0808 19.8119 16.0808C19.6815 16.0808 19.5524 16.1066 19.4319 16.1566C19.3115 16.2066 19.2021 16.28 19.1101 16.3724L16.3768 19.1056C16.2844 19.1977 16.2111 19.307 16.1611 19.4275C16.111 19.5479 16.0853 19.677 16.0853 19.8075C16.0853 19.9379 16.111 20.067 16.1611 20.1875C16.2111 20.3079 16.2844 20.4173 16.3768 20.5093L18.8653 23.0022C19.0201 23.1572 19.1073 23.3671 19.1078 23.5862V30.9167C19.1079 31.0255 19.0865 31.1333 19.0449 31.2339C19.0032 31.3345 18.9422 31.4259 18.8653 31.5029L16.3746 33.9958C16.2822 34.0878 16.2088 34.1972 16.1588 34.3176C16.1088 34.4381 16.083 34.5672 16.083 34.6976C16.083 34.8281 16.1088 34.9572 16.1588 35.0776C16.2088 35.1981 16.2822 35.3074 16.3746 35.3995L19.1078 38.1327C19.1999 38.2251 19.3092 38.2985 19.4297 38.3485C19.5501 38.3985 19.6792 38.4243 19.8097 38.4243C19.9401 38.4243 20.0692 38.3985 20.1897 38.3485C20.3101 38.2985 20.4195 38.2251 20.5115 38.1327L23.0718 35.5724C23.2276 35.4174 23.4382 35.3302 23.658 35.3298H30.8942C31.1132 35.3303 31.3232 35.4176 31.4781 35.5724L34.0205 38.1147C34.2069 38.3003 34.4592 38.4045 34.7223 38.4045C34.9853 38.4045 35.2377 38.3003 35.4241 38.1147L38.1596 35.3793C38.3452 35.1928 38.4493 34.9405 38.4493 34.6774C38.4493 34.4144 38.3452 34.162 38.1596 33.9756L35.4264 31.2423Z" fill="#0173AF"/>
<path d="M11.6662 23.8147L8.93154 26.5494C8.54388 26.9371 8.54388 27.5656 8.93154 27.9533L11.6662 30.6879C12.0539 31.0756 12.6824 31.0756 13.0701 30.6879L15.8047 27.9533C16.1924 27.5656 16.1924 26.9371 15.8047 26.5494L13.0701 23.8148C12.6824 23.4271 12.0539 23.4271 11.6662 23.8147Z" fill="#0173AF"/>
</g>
<defs>
<clipPath id="clip0_22_15">
<rect width="215" height="54.5119" fill="white"/>
</clipPath>
</defs>
</svg>
