<svg width="215" height="55" viewBox="0 0 215 55" fill="none" xmlns="http://www.w3.org/2000/svg">
<g clip-path="url(#clip0_8_250)">
<path d="M66 17.8883H70.1347V28.7224H73.1262V17.8883H77.2631V15.1304H66V17.8883Z" fill="#14143C"/>
<path d="M86.2732 22.9078V28.7134H89.2243V21.9757C89.2243 19.5861 87.9239 18.1106 85.6893 18.1106C84.1958 18.1106 83.3221 18.9079 82.6416 19.7815V14.5464H79.6905V28.7224H82.6483V22.9078C82.6483 21.5086 83.367 20.7922 84.4922 20.7922C85.6174 20.7922 86.2732 21.5176 86.2732 22.9078Z" fill="#14143C"/>
<path d="M96.429 18.1199C93.3994 18.1199 91.2838 20.5679 91.2838 23.5392V23.5818C91.2838 26.7665 93.5948 28.9719 96.721 28.9719C98.6031 28.9719 100.002 28.2331 100.972 27.0293L99.2836 25.5358C98.4683 26.2926 97.7496 26.6025 96.7592 26.6025C95.4386 26.6025 94.5133 25.9041 94.2146 24.5633H101.458C101.478 24.2915 101.498 24.1141 101.498 23.8266V23.7862C101.498 20.8194 99.9057 18.1199 96.429 18.1199ZM94.1832 22.7037C94.4078 21.3562 95.2118 20.4893 96.429 20.4893C97.6463 20.4893 98.4503 21.3876 98.6233 22.7037H94.1832Z" fill="#14143C"/>
<path d="M120.177 26.0633H112.799V23.2088H119.207V20.5474H112.799V17.7895H120.08V15.1304H109.828V28.7224H120.177V26.0633Z" fill="#14143C"/>
<path d="M128.527 18.1199C127.033 18.1199 126.16 18.9172 125.479 19.7908V18.3153H122.528V28.7227H125.479V22.9081C125.479 21.5089 126.198 20.7925 127.323 20.7925C128.448 20.7925 129.12 21.5089 129.12 22.9081V28.7137H132.058V21.976C132.058 19.5954 130.762 18.1199 128.527 18.1199Z" fill="#14143C"/>
<path d="M139.673 26.4116C138.063 26.4116 137.034 25.1315 137.034 23.5391V23.4987C137.034 21.9648 138.081 20.6644 139.559 20.6644C140.605 20.6644 141.266 21.1136 141.926 21.8098L143.723 19.8694C142.752 18.7801 141.528 18.1198 139.568 18.1198C138.85 18.1047 138.137 18.2342 137.471 18.5008C136.804 18.7673 136.199 19.1653 135.689 19.6711C135.18 20.1769 134.778 20.7801 134.507 21.4446C134.236 22.1092 134.102 22.8215 134.113 23.5391V23.5818C134.102 24.2948 134.235 25.0026 134.504 25.663C134.773 26.3234 135.172 26.923 135.678 27.4259C136.183 27.9289 136.785 28.325 137.447 28.5906C138.108 28.8562 138.817 28.9859 139.53 28.9719C141.607 28.9719 142.773 28.1746 143.781 27.0697L142.054 25.3201C141.344 25.9849 140.664 26.4116 139.673 26.4116Z" fill="#14143C"/>
<path d="M148.677 20.4126V18.315H145.715V28.7224H148.677V24.8774C148.677 22.3935 149.881 21.2077 151.841 21.2077H151.996V18.1196C150.249 18.0432 149.268 18.9753 148.677 20.4126Z" fill="#14143C"/>
<path d="M159.733 28.9719L163.724 18.3152H160.665L158.395 25.4032L156.025 18.3152H152.899L156.987 28.7608C156.733 29.2863 156.461 29.4345 155.956 29.4345C155.507 29.4063 155.073 29.2658 154.694 29.0258L153.703 31.1638C154.488 31.6463 155.392 31.8984 156.313 31.8915C158.083 31.8915 158.938 31.092 159.733 28.9719Z" fill="#14143C"/>
<path d="M171.677 18.1199C170.143 18.1199 169.153 18.8386 168.434 19.811V18.3153H165.483V31.8309H168.441V27.3639C168.822 27.8585 169.314 28.2568 169.877 28.5267C170.441 28.7966 171.059 28.9307 171.684 28.918C174.154 28.918 176.42 27.0135 176.42 23.5392V23.4987C176.414 20.0244 174.105 18.1199 171.677 18.1199ZM173.474 23.5392C173.474 25.2865 172.31 26.4116 170.931 26.4116C169.552 26.4116 168.407 25.2663 168.407 23.5392V23.4987C168.407 21.7717 169.552 20.6263 170.931 20.6263C172.31 20.6263 173.474 21.7717 173.474 23.4987V23.5392Z" fill="#14143C"/>
<path d="M179.075 25.7715C179.075 28.1791 180.299 28.8977 182.104 28.8977C182.922 28.9205 183.73 28.7127 184.436 28.2981V25.9264C183.989 26.1707 183.487 26.2975 182.978 26.2948C182.318 26.2948 182.026 25.9646 182.026 25.2864V20.8395H184.474V18.3152H182.026V15.6538H179.075V18.3152H177.833V20.8395H179.075V25.7715Z" fill="#14143C"/>
<path d="M197.116 23.5392V23.4987C197.116 20.5095 194.727 18.1199 191.501 18.1199C188.276 18.1199 185.851 20.5477 185.851 23.5392V23.5818C185.851 26.5711 188.238 28.9719 191.466 28.9719C194.693 28.9719 197.116 26.5284 197.116 23.5392ZM188.766 23.5392V23.4987C188.766 21.9648 189.774 20.6645 191.461 20.6645C193.092 20.6645 194.199 22.012 194.199 23.5392V23.5818C194.199 25.1158 193.188 26.4161 191.504 26.4161C189.873 26.4116 188.766 25.0731 188.766 23.5392Z" fill="#14143C"/>
<path d="M202.203 20.4126V18.315H199.252V28.7224H202.203V24.8774C202.203 22.3935 203.407 21.2077 205.367 21.2077H205.525V18.1196C203.775 18.0432 202.803 18.9753 202.203 20.4126Z" fill="#14143C"/>
<path d="M211.854 22.4318C210.731 22.0433 209.738 21.7715 209.738 21.1876V21.1494C209.738 20.7429 210.106 20.4307 210.825 20.4307C211.582 20.4307 212.622 20.8013 213.641 21.4032L214.764 19.3639C213.614 18.5994 212.269 18.1815 210.888 18.1602C208.79 18.1602 207.07 19.3437 207.07 21.4616V21.4998C207.07 23.5211 208.721 24.1948 210.178 24.626C211.324 24.9741 212.334 25.1898 212.334 25.8298V25.868C212.334 26.3351 211.946 26.6451 211.09 26.6451C210.12 26.6451 208.934 26.2184 207.809 25.4031L206.547 27.3435C207.819 28.3496 209.391 28.9028 211.014 28.9157C213.259 28.9157 214.993 27.8668 214.993 25.5468V25.5087C215 23.6154 213.311 22.9079 211.854 22.4318Z" fill="#14143C"/>
<path d="M68.3196 36.8505C68.0671 36.8002 67.8182 36.7333 67.5744 36.6504C67.4131 36.5945 67.2607 36.5154 67.1221 36.4155C67.0219 36.3404 66.943 36.2405 66.8931 36.1256C66.85 36.0127 66.8284 35.8927 66.8293 35.7718C66.8293 35.649 66.8581 35.5278 66.9134 35.4181C66.968 35.3045 67.0484 35.2052 67.1482 35.1282C67.259 35.0443 67.3836 34.9805 67.5165 34.9397C67.6718 34.8892 67.8344 34.8647 67.9978 34.8672C68.2746 34.867 68.5493 34.9151 68.8097 35.0093C69.0907 35.1162 69.3515 35.2701 69.5809 35.4645L69.9434 34.9861C69.6809 34.7751 69.3875 34.6059 69.0735 34.4845C68.737 34.374 68.3837 34.3229 68.0297 34.3337C67.7844 34.3312 67.5404 34.3694 67.3077 34.4468C67.0969 34.5163 66.9005 34.6234 66.7278 34.7628C66.5694 34.8912 66.4408 35.0525 66.3508 35.2354C66.2605 35.4245 66.2148 35.6319 66.2175 35.8414C66.2132 36.046 66.2507 36.2492 66.3276 36.4387C66.4038 36.6091 66.519 36.7591 66.664 36.8766C66.8377 37.0159 67.0338 37.1248 67.2439 37.1984C67.5107 37.2985 67.7851 37.3771 68.0645 37.4333C68.3051 37.4844 68.5423 37.5502 68.7749 37.6304C68.9309 37.6837 69.0776 37.761 69.2098 37.8595C69.3075 37.9351 69.3835 38.0351 69.4302 38.1495C69.475 38.2599 69.4967 38.3783 69.4939 38.4974C69.4975 38.6299 69.4691 38.7613 69.411 38.8804C69.353 38.9995 69.267 39.1029 69.1605 39.1817C68.9009 39.3646 68.5875 39.4554 68.2703 39.4398C67.9234 39.4463 67.5789 39.3812 67.2584 39.2484C66.9387 39.1039 66.6449 38.908 66.3885 38.6685L66 39.1034C66.3031 39.3841 66.6549 39.6072 67.038 39.7616C67.4223 39.9069 67.8305 39.9787 68.2413 39.9733C68.4969 39.9766 68.7513 39.9394 68.9952 39.8631C69.207 39.7974 69.404 39.6911 69.5751 39.5499C69.7414 39.4115 69.8747 39.2375 69.965 39.0408C70.0553 38.8441 70.1004 38.6297 70.097 38.4133C70.1064 38.2248 70.072 38.0366 69.9966 37.8636C69.9211 37.6906 69.8066 37.5373 69.6621 37.4159C69.2635 37.1277 68.8043 36.9343 68.3196 36.8505Z" fill="#14143C"/>
<path d="M76.6673 35.1575C76.4207 34.8973 76.1251 34.6884 75.7975 34.5428C75.4353 34.3925 75.0471 34.3152 74.655 34.3152C74.263 34.3152 73.8748 34.3925 73.5126 34.5428C73.1793 34.6898 72.8787 34.9017 72.6283 35.1662C72.3789 35.429 72.182 35.737 72.0484 36.0738C71.9119 36.4189 71.843 36.7871 71.8454 37.1582C71.8436 37.529 71.9115 37.8968 72.0455 38.2426C72.1735 38.5794 72.3678 38.8872 72.6168 39.1476C72.8658 39.4081 73.1645 39.616 73.4952 39.7591C73.8544 39.9158 74.2429 39.9939 74.6348 39.9881C75.0287 39.9929 75.4191 39.9138 75.7801 39.7562C76.1139 39.6103 76.4148 39.3982 76.6644 39.1328C76.9138 38.8711 77.1106 38.564 77.2443 38.2281C77.3811 37.8821 77.45 37.5129 77.4473 37.1408C77.4491 36.77 77.3812 36.4021 77.2472 36.0564C77.1153 35.7213 76.9182 35.4158 76.6673 35.1575ZM76.6325 38.0425C76.5316 38.3073 76.381 38.5504 76.1889 38.7587C75.9987 38.9653 75.7676 39.1302 75.5104 39.243C75.236 39.3617 74.9395 39.4209 74.6405 39.4169C74.3409 39.4215 74.044 39.3601 73.7707 39.2372C73.5129 39.1224 73.2803 38.9579 73.0864 38.7529C72.8902 38.5439 72.7365 38.2987 72.6341 38.031C72.5261 37.7477 72.472 37.4468 72.4746 37.1437C72.4735 36.8464 72.5276 36.5514 72.6341 36.2738C72.7357 36.0094 72.8862 35.7664 73.0777 35.5576C73.2682 35.3521 73.4992 35.1882 73.7562 35.0763C74.0308 34.9574 74.3268 34.8961 74.6261 34.8961C74.9253 34.8961 75.2213 34.9574 75.4959 35.0763C75.7557 35.1922 75.9899 35.3585 76.185 35.5656C76.3801 35.7726 76.5322 36.0163 76.6325 36.2825C76.7402 36.5658 76.7943 36.8667 76.792 37.1698C76.7935 37.4681 76.7394 37.764 76.6325 38.0425Z" fill="#14143C"/>
<path d="M82.9448 39.2109C82.6422 39.3563 82.3091 39.4269 81.9735 39.4168C81.684 39.4194 81.3973 39.3601 81.1326 39.2428C80.8773 39.1283 80.6475 38.9636 80.457 38.7586C80.263 38.5501 80.1113 38.3059 80.0105 38.0395C79.9023 37.7533 79.8482 37.4495 79.851 37.1435C79.8479 36.8404 79.9021 36.5394 80.0105 36.2563C80.112 35.9903 80.2636 35.7461 80.457 35.5372C80.6502 35.3288 80.8851 35.1633 81.1463 35.0514C81.4075 34.9396 81.6893 34.8838 81.9735 34.8877C82.3087 34.878 82.6413 34.9507 82.9419 35.0994C83.2127 35.246 83.4632 35.4273 83.6871 35.6387L84.1104 35.1864C83.977 35.0587 83.8356 34.9395 83.6871 34.8297C83.5385 34.7162 83.3781 34.619 83.2087 34.5398C83.0284 34.4627 82.8409 34.4035 82.6491 34.3629C82.4254 34.3204 82.1982 34.3001 81.9706 34.302C81.5878 34.2969 81.2083 34.373 80.8571 34.5253C80.5288 34.6683 80.2329 34.8764 79.9873 35.1371C79.7377 35.3986 79.5408 35.7057 79.4074 36.0417C79.129 36.7549 79.129 37.5467 79.4074 38.2599C79.5395 38.594 79.7366 38.8985 79.9873 39.1558C80.2346 39.4115 80.5303 39.6156 80.8571 39.756C81.2044 39.9043 81.5785 39.9793 81.9561 39.9764C82.1853 39.9793 82.414 39.9549 82.6375 39.9039C82.8374 39.8608 83.0319 39.7957 83.2174 39.7096C83.3928 39.6298 83.5599 39.5327 83.7161 39.4197C83.8736 39.2984 84.0218 39.1656 84.1597 39.0224L83.7509 38.6223C83.5131 38.8576 83.2414 39.056 82.9448 39.2109Z" fill="#14143C"/>
<path d="M91.4812 37.5234H93.1514V38.892C92.9406 39.0586 92.7047 39.1907 92.4526 39.2835C92.1703 39.3914 91.8704 39.4455 91.5682 39.4429C91.259 39.449 90.9519 39.3907 90.6665 39.2719C90.4084 39.1617 90.1763 38.9987 89.9851 38.7934C89.7929 38.5824 89.645 38.3349 89.5501 38.0656C89.4442 37.773 89.3922 37.4635 89.3965 37.1523C89.3953 36.8552 89.4484 36.5604 89.553 36.2824C89.6517 36.0182 89.7981 35.7745 89.9851 35.5634C90.1695 35.3584 90.3933 35.1927 90.6433 35.0762C90.9059 34.9551 91.1921 34.8937 91.4812 34.8965C91.6582 34.8945 91.835 34.91 92.0089 34.9428C92.1597 34.972 92.3073 35.0157 92.4497 35.0733C92.5794 35.1258 92.7037 35.1909 92.8208 35.2676C92.9365 35.3452 93.047 35.4305 93.1514 35.5228L93.5515 35.053C93.4186 34.9401 93.2781 34.8365 93.1311 34.7428C92.9846 34.6509 92.8291 34.5742 92.6671 34.5137C92.4956 34.4483 92.3178 34.4007 92.1365 34.3716C91.9274 34.3389 91.716 34.3234 91.5044 34.3252C91.1173 34.3195 90.7335 34.3976 90.3794 34.5543C90.0511 34.7026 89.7555 34.9145 89.5095 35.1777C89.2682 35.4439 89.0784 35.7526 88.9499 36.0882C88.8165 36.4331 88.7486 36.7999 88.7499 37.1697C88.7468 37.5467 88.8127 37.9211 88.9441 38.2744C89.0643 38.6115 89.2539 38.9196 89.5006 39.1789C89.7473 39.4381 90.0457 39.6426 90.3765 39.7793C90.7444 39.9298 91.1388 40.0047 91.5363 39.9996C91.9674 40.0054 92.3949 39.9215 92.7918 39.7532C93.1353 39.6106 93.4543 39.4149 93.7371 39.1733V36.9725H91.4725L91.4812 37.5234Z" fill="#14143C"/>
<path d="M99.2953 37.4686C99.4702 37.3844 99.6299 37.2717 99.7679 37.1352C99.9021 37.0013 100.008 36.8415 100.078 36.6655C100.154 36.4685 100.191 36.2589 100.188 36.0479C100.191 35.8168 100.143 35.588 100.046 35.3781C99.9541 35.1785 99.8183 35.0021 99.649 34.8619C99.4644 34.712 99.2528 34.5988 99.0256 34.5285C98.7599 34.4464 98.4831 34.4063 98.205 34.4096H95.8477V39.8955H96.4653V37.7644H98.034L99.6229 39.8955H100.385L98.698 37.6571C98.905 37.6229 99.1061 37.5595 99.2953 37.4686ZM96.4653 37.2164V34.9808H98.1616C98.5302 34.959 98.8956 35.0611 99.1996 35.2708C99.321 35.3658 99.4179 35.4886 99.482 35.6289C99.5461 35.7692 99.5755 35.9228 99.5678 36.0769C99.5707 36.2432 99.535 36.408 99.4634 36.5582C99.3956 36.6978 99.2964 36.8199 99.1735 36.9148C99.04 37.0174 98.8886 37.0941 98.727 37.141C98.5387 37.1959 98.3432 37.2223 98.147 37.2193L96.4653 37.2164Z" fill="#14143C"/>
<path d="M104.248 34.3713L101.748 39.895H102.383L103.033 38.4452H106.014L106.657 39.895H107.324L104.822 34.3713H104.248ZM103.276 37.8972L104.532 35.0991L105.776 37.8972H103.276Z" fill="#14143C"/>
<path d="M113.126 35.2039C112.859 34.9521 112.544 34.7551 112.201 34.624C111.824 34.4817 111.424 34.4109 111.021 34.4152H109.116V39.9012H111.021C111.424 39.9058 111.825 39.834 112.201 39.6895C112.544 39.558 112.858 39.3611 113.126 39.1096C113.385 38.8653 113.588 38.5688 113.724 38.2397C114.006 37.5443 114.006 36.7663 113.724 36.0709C113.587 35.7435 113.383 35.4482 113.126 35.2039ZM113.126 38.0281C113.022 38.2844 112.867 38.5171 112.671 38.7123C112.467 38.9139 112.223 39.07 111.955 39.1705C111.655 39.284 111.336 39.3401 111.015 39.3357H109.728V34.9864H111.015C111.337 34.9825 111.656 35.0406 111.955 35.1575C112.218 35.2595 112.457 35.4153 112.657 35.615C112.857 35.8147 113.013 36.0539 113.115 36.3173C113.331 36.867 113.331 37.4784 113.115 38.0281H113.126Z" fill="#14143C"/>
<path d="M119.815 37.5989C119.834 37.8436 119.803 38.0894 119.726 38.3223C119.649 38.5552 119.527 38.7706 119.366 38.9559C119.028 39.2533 118.591 39.4154 118.141 39.4111C117.69 39.4068 117.257 39.2365 116.925 38.9327C116.609 38.5481 116.451 38.0578 116.484 37.5612V34.4094H115.872V37.5989C115.866 37.9482 115.921 38.2958 116.037 38.6254C116.136 38.9069 116.295 39.1634 116.504 39.3763C116.708 39.5782 116.953 39.7327 117.223 39.8287C117.829 40.0346 118.485 40.0346 119.091 39.8287C119.362 39.731 119.609 39.5746 119.813 39.3705C120.021 39.1548 120.18 38.8953 120.276 38.6109C120.393 38.2704 120.449 37.9122 120.442 37.5525V34.4094H119.815V37.5989Z" fill="#14143C"/>
<path d="M124.437 34.3713L121.938 39.895H122.573L123.222 38.4452H126.209L126.853 39.895H127.52L125.017 34.3713H124.437ZM123.466 37.8972L124.722 35.0991L125.965 37.8972H123.466Z" fill="#14143C"/>
<path d="M128.21 34.9806H130.051V39.8954H130.668V34.9806H132.512V34.4094H128.21V34.9806Z" fill="#14143C"/>
<path d="M135.058 34.4094H134.438V39.8954H135.058V34.4094Z" fill="#14143C"/>
<path d="M141.408 38.808L137.949 34.4094H137.369V39.8954H137.975V35.3982L141.516 39.8954H142.012V34.4094H141.408V38.808Z" fill="#14143C"/>
<path d="M146.752 37.5236H148.422V38.8922C148.212 39.0588 147.976 39.1909 147.724 39.2836C147.441 39.3916 147.141 39.4457 146.839 39.4431C146.53 39.4492 146.223 39.3909 145.937 39.272C145.679 39.1619 145.447 38.9989 145.256 38.7936C145.064 38.5826 144.916 38.3351 144.821 38.0658C144.717 37.7728 144.665 37.4636 144.667 37.1525C144.666 36.8554 144.719 36.5606 144.824 36.2826C144.923 36.0184 145.069 35.7747 145.256 35.5635C145.441 35.3592 145.665 35.1936 145.914 35.0764C146.177 34.9556 146.463 34.8942 146.752 34.8966C146.93 34.8947 147.108 34.9102 147.283 34.943C147.433 34.9726 147.579 35.0163 147.721 35.0735C147.85 35.126 147.975 35.191 148.092 35.2678C148.207 35.3454 148.318 35.4306 148.422 35.5229L148.822 35.0532C148.69 34.9403 148.549 34.8367 148.402 34.743C148.256 34.6517 148.102 34.575 147.941 34.5139C147.768 34.4485 147.59 34.4009 147.407 34.3718C147.198 34.3391 146.987 34.3236 146.775 34.3254C146.402 34.3183 146.032 34.3906 145.689 34.5376C145.346 34.6846 145.038 34.9028 144.786 35.1779C144.543 35.4431 144.352 35.752 144.224 36.0884C144.09 36.4333 144.022 36.8001 144.024 37.1699C144.021 37.5469 144.087 37.9213 144.218 38.2746C144.339 38.6111 144.529 38.9187 144.776 39.1777C145.022 39.4368 145.32 39.6417 145.65 39.7795C146.018 39.93 146.413 40.0049 146.81 39.9998C147.242 40.0053 147.671 39.9214 148.069 39.7534C148.411 39.6101 148.729 39.4144 149.011 39.1735V36.9727H146.752V37.5236Z" fill="#14143C"/>
<path d="M157.669 39.2109C157.366 39.3563 157.033 39.4269 156.697 39.4168C156.408 39.4194 156.121 39.3601 155.857 39.2428C155.601 39.1283 155.371 38.9636 155.181 38.7586C154.987 38.5501 154.835 38.3059 154.734 38.0395C154.626 37.7533 154.572 37.4495 154.575 37.1435C154.572 36.8404 154.626 36.5394 154.734 36.2563C154.836 35.9903 154.988 35.7461 155.181 35.5372C155.374 35.3288 155.609 35.1633 155.87 35.0514C156.131 34.9396 156.413 34.8838 156.697 34.8877C157.033 34.878 157.365 34.9507 157.666 35.0994C157.941 35.2451 158.195 35.4265 158.423 35.6387L158.846 35.1864C158.713 35.0587 158.571 34.9395 158.423 34.8297C158.274 34.7155 158.114 34.6182 157.944 34.5398C157.764 34.4623 157.577 34.403 157.385 34.3629C157.161 34.3204 156.934 34.3001 156.706 34.302C156.323 34.2969 155.944 34.373 155.593 34.5253C155.264 34.6683 154.968 34.8764 154.723 35.1371C154.473 35.3986 154.276 35.7057 154.143 36.0417C153.865 36.7549 153.865 37.5467 154.143 38.2599C154.275 38.594 154.472 38.8985 154.723 39.1558C154.97 39.4115 155.266 39.6156 155.593 39.756C155.94 39.9043 156.314 39.9793 156.692 39.9764C156.921 39.9793 157.15 39.9549 157.373 39.9039C157.761 39.8179 158.126 39.6487 158.443 39.4081C158.6 39.2868 158.749 39.154 158.887 39.0109L158.478 38.6107C158.24 38.8504 157.967 39.0527 157.669 39.2109Z" fill="#14143C"/>
<path d="M161.285 34.4094H160.664V39.8954H164.373V39.3241H161.285V34.4094Z" fill="#14143C"/>
<path d="M168.252 34.3713L165.744 39.895H166.379L167.031 38.4452H170.015L170.659 39.895H171.326L168.826 34.3713H168.252ZM167.278 37.8972L168.533 35.0991L169.78 37.8972H167.278Z" fill="#14143C"/>
<path d="M174.976 36.8506C174.724 36.8006 174.475 36.7338 174.231 36.6505C174.069 36.5946 173.915 36.5155 173.776 36.4157C173.676 36.3412 173.597 36.241 173.55 36.1257C173.505 36.0132 173.484 35.8929 173.486 35.772C173.486 35.6487 173.515 35.5271 173.571 35.417C173.626 35.3068 173.706 35.2109 173.805 35.137C173.916 35.0531 174.04 34.9893 174.173 34.9485C174.328 34.8978 174.491 34.8733 174.654 34.876C174.931 34.8763 175.206 34.9243 175.466 35.0181C175.747 35.125 176.008 35.2789 176.238 35.4733L176.597 34.9949C176.335 34.7837 176.041 34.6145 175.727 34.4933C175.388 34.3769 175.031 34.3209 174.672 34.328C174.427 34.3252 174.184 34.3635 173.953 34.4411C173.742 34.5116 173.546 34.6186 173.373 34.7571C173.212 34.8867 173.083 35.0512 172.995 35.238C172.907 35.4249 172.863 35.6293 172.865 35.8357C172.86 36.0404 172.897 36.244 172.976 36.4331C173.052 36.6034 173.167 36.7534 173.312 36.8709C173.485 37.0105 173.682 37.1194 173.892 37.1927C174.159 37.2921 174.433 37.3706 174.712 37.4276C174.954 37.4787 175.192 37.5446 175.426 37.6248C175.582 37.678 175.728 37.7553 175.861 37.8538C175.957 37.9302 176.033 38.03 176.081 38.1438C176.124 38.2546 176.146 38.3727 176.145 38.4917C176.148 38.6241 176.119 38.7553 176.061 38.8744C176.003 38.9934 175.918 39.0969 175.811 39.176C175.552 39.3589 175.238 39.4497 174.921 39.4341C174.574 39.4409 174.23 39.3757 173.909 39.2427C173.589 39.0989 173.295 38.903 173.039 38.6628L172.657 39.118C172.959 39.3993 173.311 39.6224 173.695 39.7762C174.079 39.9218 174.487 39.9936 174.898 39.9879C175.153 39.9913 175.406 39.9541 175.649 39.8777C175.861 39.8117 176.058 39.7054 176.229 39.5646C176.395 39.4261 176.528 39.2521 176.619 39.0554C176.709 38.8587 176.754 38.6443 176.751 38.4279C176.76 38.2394 176.726 38.0512 176.65 37.8782C176.575 37.7052 176.46 37.5519 176.316 37.4305C175.919 37.1375 175.461 36.9391 174.976 36.8506Z" fill="#14143C"/>
<path d="M180.619 36.8507C180.366 36.8008 180.117 36.734 179.874 36.6507C179.712 36.5941 179.558 36.515 179.418 36.4158C179.319 36.3406 179.241 36.2406 179.192 36.1259C179.149 36.0129 179.128 35.893 179.128 35.7721C179.128 35.6492 179.157 35.5281 179.213 35.4184C179.267 35.3047 179.348 35.2054 179.447 35.1284C179.558 35.0446 179.683 34.9808 179.816 34.9399C179.971 34.8893 180.134 34.8648 180.297 34.8675C180.574 34.8675 180.848 34.9156 181.109 35.0095C181.39 35.1164 181.651 35.2704 181.88 35.4648L182.243 34.9863C181.98 34.7754 181.687 34.6062 181.373 34.4847C181.034 34.3683 180.678 34.3124 180.32 34.3194C180.075 34.3167 179.831 34.3549 179.598 34.4325C179.387 34.5021 179.191 34.6091 179.018 34.7486C178.856 34.8774 178.726 35.0417 178.638 35.2286C178.549 35.4156 178.505 35.6204 178.508 35.8272C178.504 36.0317 178.541 36.235 178.618 36.4245C178.694 36.5949 178.809 36.7449 178.954 36.8623C179.128 37.0014 179.324 37.1102 179.534 37.1842C179.802 37.2839 180.078 37.3624 180.358 37.4191C180.598 37.4701 180.836 37.536 181.068 37.6162C181.224 37.6695 181.371 37.7468 181.503 37.8453C181.601 37.9209 181.677 38.0209 181.724 38.1352C181.768 38.2456 181.79 38.3641 181.787 38.4832C181.79 38.6156 181.762 38.7468 181.704 38.8658C181.646 38.9849 181.56 39.0883 181.454 39.1675C181.194 39.3504 180.881 39.4412 180.564 39.4255C180.217 39.4321 179.872 39.3669 179.552 39.2342C179.232 39.0904 178.938 38.8944 178.682 38.6543L178.299 39.1095C178.602 39.3908 178.954 39.6139 179.337 39.7677C179.722 39.913 180.13 39.9848 180.541 39.9793C180.795 39.9829 181.049 39.9457 181.292 39.8692C181.503 39.8038 181.701 39.6974 181.871 39.556C182.038 39.4175 182.171 39.2436 182.261 39.0469C182.352 38.8502 182.397 38.6358 182.393 38.4194C182.403 38.2309 182.368 38.0427 182.293 37.8697C182.217 37.6966 182.103 37.5434 181.958 37.422C181.561 37.1321 181.103 36.9367 180.619 36.8507Z" fill="#14143C"/>
<path d="M192.014 35.1575C191.767 34.8973 191.472 34.6884 191.144 34.5428C190.782 34.3925 190.394 34.3152 190.002 34.3152C189.61 34.3152 189.221 34.3925 188.859 34.5428C188.531 34.6914 188.236 34.9032 187.989 35.1662C187.74 35.429 187.543 35.737 187.41 36.0738C187.141 36.7717 187.141 37.5446 187.41 38.2426C187.538 38.5794 187.732 38.8872 187.981 39.1476C188.23 39.4081 188.529 39.616 188.859 39.7591C189.218 39.9158 189.607 39.9939 189.999 39.9881C190.393 39.9929 190.783 39.9138 191.144 39.7562C191.478 39.6096 191.78 39.3976 192.031 39.1328C192.28 38.8704 192.477 38.5635 192.611 38.2281C192.748 37.8821 192.817 37.5129 192.814 37.1408C192.816 36.77 192.748 36.4021 192.614 36.0564C192.476 35.7196 192.272 35.414 192.014 35.1575ZM191.979 38.0425C191.878 38.3073 191.728 38.5504 191.536 38.7587C191.346 38.9643 191.116 39.1291 190.86 39.243C190.585 39.3612 190.289 39.4205 189.99 39.4169C189.691 39.4215 189.394 39.3601 189.12 39.2372C188.862 39.1224 188.63 38.9579 188.436 38.7529C188.24 38.5439 188.086 38.2987 187.984 38.031C187.876 37.7477 187.822 37.4468 187.824 37.1437C187.823 36.8464 187.877 36.5514 187.984 36.2738C188.085 36.0094 188.236 35.7664 188.427 35.5576C188.618 35.3521 188.849 35.1882 189.106 35.0763C189.38 34.9574 189.676 34.8961 189.976 34.8961C190.275 34.8961 190.571 34.9574 190.846 35.0763C191.105 35.1922 191.34 35.3585 191.535 35.5656C191.73 35.7726 191.882 36.0163 191.982 36.2825C192.09 36.5658 192.144 36.8667 192.142 37.1698C192.142 37.4683 192.087 37.7642 191.979 38.0425Z" fill="#14143C"/>
<path d="M194.797 39.8954H195.415V37.5061H198.387V36.9407H195.415V34.9806H198.738V34.4094H194.797V39.8954Z" fill="#14143C"/>
<path d="M205.691 38.0305C205.932 37.8218 206.138 37.6304 206.312 37.4506C206.468 37.2937 206.612 37.124 206.741 36.9432C206.85 36.7905 206.936 36.6225 206.996 36.4445C207.052 36.2644 207.08 36.0765 207.077 35.8878C207.079 35.6736 207.037 35.4612 206.952 35.2644C206.871 35.0772 206.752 34.9093 206.602 34.7715C206.444 34.6297 206.261 34.5194 206.062 34.4467C205.843 34.3657 205.611 34.3255 205.378 34.3278C205.16 34.3251 204.942 34.3514 204.731 34.4061C204.549 34.4537 204.375 34.529 204.215 34.6294C204.056 34.7306 203.911 34.8536 203.786 34.9947C203.648 35.1504 203.52 35.315 203.403 35.4876L203.856 35.8182C204.038 35.5492 204.263 35.3121 204.523 35.1165C204.76 34.9531 205.043 34.8688 205.332 34.8758C205.476 34.8762 205.619 34.9017 205.755 34.9512C205.885 34.9979 206.004 35.0698 206.106 35.1629C206.204 35.2571 206.282 35.3694 206.338 35.4934C206.399 35.6303 206.429 35.7786 206.428 35.9284C206.427 36.0629 206.408 36.1967 206.37 36.3256C206.323 36.4648 206.256 36.5966 206.172 36.7171C206.064 36.8686 205.945 37.0121 205.816 37.1462C205.668 37.297 205.491 37.468 205.282 37.6565L203.293 39.4136V39.892H207.123V39.3295H204.224L205.691 38.0305Z" fill="#14143C"/>
<path d="M212.05 37.1988C211.875 37.0686 211.679 36.9705 211.47 36.9088C211.245 36.8416 211.013 36.7969 210.78 36.7754L212.496 34.8647V34.4094H209.005V34.9574H211.687L209.947 36.9175L210.072 37.2858H210.423C210.812 37.2692 211.197 37.3648 211.533 37.5612C211.669 37.643 211.78 37.7596 211.855 37.8988C211.93 38.038 211.966 38.1948 211.96 38.3528C211.962 38.5007 211.932 38.6473 211.872 38.7825C211.812 38.9177 211.723 39.0382 211.612 39.1357C211.501 39.2321 211.372 39.3051 211.232 39.3502C211.081 39.402 210.922 39.4275 210.762 39.4256C210.449 39.4331 210.14 39.3602 209.863 39.214C209.59 39.0601 209.349 38.8554 209.153 38.6109L208.706 39.011C208.934 39.3052 209.223 39.5465 209.553 39.7185C209.924 39.9079 210.337 40.0016 210.753 39.991C210.998 39.9931 211.24 39.9519 211.47 39.8693C211.683 39.7937 211.88 39.6775 212.05 39.5271C212.212 39.3801 212.344 39.2015 212.435 39.0023C212.533 38.7916 212.582 38.5618 212.58 38.3296C212.586 38.1014 212.535 37.8753 212.432 37.6714C212.34 37.4886 212.209 37.3275 212.05 37.1988Z" fill="#14143C"/>
<path d="M53.8873 25.7446L28.7672 0.624439C28.366 0.224249 27.8224 -0.000488281 27.2557 -0.000488281C26.689 -0.000488281 26.1455 0.224249 25.7442 0.624439L0.626368 25.7423C0.427605 25.9409 0.269925 26.1767 0.162344 26.4362C0.054763 26.6958 -0.000610352 26.974 -0.000610352 27.2549C-0.000610352 27.5359 0.054763 27.8141 0.162344 28.0736C0.269925 28.3332 0.427605 28.569 0.626368 28.7675L25.7442 53.8854C25.9426 54.0841 26.1782 54.2417 26.4376 54.3493C26.6969 54.4568 26.975 54.5122 27.2557 54.5122C27.5365 54.5122 27.8145 54.4568 28.0739 54.3493C28.3332 54.2417 28.5688 54.0841 28.7672 53.8854L53.8873 28.7675C54.2875 28.3663 54.5123 27.8227 54.5123 27.256C54.5123 26.6894 54.2875 26.1458 53.8873 25.7446ZM52.989 27.8737L27.8733 53.0028C27.7065 53.1607 27.4855 53.2488 27.2557 53.2488C27.026 53.2488 26.805 53.1607 26.6381 53.0028L1.52023 27.8737C1.35648 27.7098 1.26449 27.4877 1.26449 27.256C1.26449 27.0244 1.35648 26.8023 1.52023 26.6384L26.6381 1.52054C26.8019 1.35679 27.0241 1.2648 27.2557 1.2648C27.4874 1.2648 27.7095 1.35679 27.8733 1.52054L53.0025 26.6384C53.1662 26.8023 53.2582 27.0244 53.2582 27.256C53.2582 27.4877 53.1662 27.7098 53.0025 27.8737H52.989Z" fill="#14143C"/>
<path d="M26.5557 8.92571L23.821 11.6604C23.4333 12.048 23.4333 12.6766 23.821 13.0642L26.5557 15.7989C26.9433 16.1866 27.5719 16.1866 27.9595 15.7989L30.6942 13.0642C31.0819 12.6766 31.0819 12.048 30.6942 11.6604L27.9595 8.92571C27.5719 8.53805 26.9433 8.53805 26.5557 8.92571Z" fill="#14143C"/>
<path d="M26.5557 38.7084L23.821 41.4431C23.4333 41.8308 23.4333 42.4593 23.821 42.8469L26.5557 45.5816C26.9433 45.9693 27.5719 45.9693 27.9595 45.5816L30.6942 42.8469C31.0819 42.4593 31.0819 41.8308 30.6942 41.4431L27.9595 38.7084C27.5719 38.3208 26.9433 38.3208 26.5557 38.7084Z" fill="#14143C"/>
<path d="M42.8469 23.8061C42.6604 23.6205 42.4081 23.5164 42.1451 23.5164C41.882 23.5164 41.6297 23.6205 41.4432 23.8061L38.9009 26.3484C38.8239 26.4254 38.7325 26.4864 38.6319 26.528C38.5313 26.5696 38.4236 26.591 38.3147 26.591H31.0875C30.9786 26.591 30.8708 26.5696 30.7703 26.528C30.6697 26.4864 30.5783 26.4254 30.5013 26.3484L27.959 23.8061C27.7725 23.6205 27.5202 23.5164 27.2571 23.5164C26.9941 23.5164 26.7417 23.6205 26.5553 23.8061L23.8198 26.5416C23.6343 26.728 23.5301 26.9804 23.5301 27.2434C23.5301 27.5064 23.6343 27.7588 23.8198 27.9452L26.5553 30.6785C26.6473 30.7709 26.7567 30.8442 26.8771 30.8943C26.9976 30.9443 27.1267 30.9701 27.2571 30.9701C27.3876 30.9701 27.5167 30.9443 27.6371 30.8943C27.7576 30.8442 27.8669 30.7709 27.959 30.6785L30.5013 28.1361C30.5783 28.0592 30.6697 27.9982 30.7703 27.9566C30.8708 27.9149 30.9786 27.8935 31.0875 27.8936H38.3147C38.4236 27.8935 38.5313 27.9149 38.6319 27.9566C38.7325 27.9982 38.8239 28.0592 38.9009 28.1361L41.4432 30.6785C41.5352 30.7709 41.6446 30.8442 41.7651 30.8943C41.8855 30.9443 42.0146 30.9701 42.1451 30.9701C42.2755 30.9701 42.4046 30.9443 42.525 30.8943C42.6455 30.8442 42.7549 30.7709 42.8469 30.6785L45.5913 27.9542C45.7769 27.7678 45.8811 27.5154 45.8811 27.2524C45.8811 26.9893 45.7769 26.737 45.5913 26.5505L42.8469 23.8061Z" fill="#14143C"/>
<path d="M35.4264 31.2426C35.3343 31.1502 35.225 31.0768 35.1045 31.0268C34.9841 30.9768 34.855 30.951 34.7245 30.951C34.5941 30.951 34.465 30.9768 34.3445 31.0268C34.2241 31.0768 34.1147 31.1502 34.0227 31.2426L31.4804 33.7849C31.3254 33.9398 31.1155 34.027 30.8964 34.0275H23.6243C23.5154 34.0275 23.4077 34.0061 23.3071 33.9645C23.2065 33.9229 23.1151 33.8619 23.0381 33.7849L20.662 31.4021C20.585 31.3251 20.524 31.2337 20.4824 31.1331C20.4408 31.0325 20.4194 30.9247 20.4194 30.8159V23.6897C20.4194 23.5809 20.4408 23.4731 20.4824 23.3725C20.524 23.2719 20.585 23.1805 20.662 23.1035L23.0651 20.7027C23.1416 20.6258 23.2326 20.5648 23.3328 20.5232C23.433 20.4816 23.5405 20.4601 23.649 20.4601H30.8785C31.0982 20.4605 31.3089 20.5477 31.4646 20.7027L34.007 23.245C34.1934 23.4306 34.4458 23.5348 34.7088 23.5348C34.9719 23.5348 35.2242 23.4306 35.4106 23.245L38.1439 20.5095C38.2363 20.4175 38.3096 20.3082 38.3597 20.1877C38.4097 20.0673 38.4355 19.9381 38.4355 19.8077C38.4355 19.6773 38.4097 19.5482 38.3597 19.4277C38.3096 19.3073 38.2363 19.1979 38.1439 19.1059L35.4039 16.3726C35.3119 16.2802 35.2025 16.2069 35.0821 16.1569C34.9616 16.1068 34.8325 16.0811 34.7021 16.0811C34.5717 16.0811 34.4425 16.1068 34.3221 16.1569C34.2016 16.2069 34.0923 16.2802 34.0002 16.3726L31.4579 18.915C31.3021 19.07 31.0915 19.1571 30.8717 19.1575H23.6423C23.5334 19.1576 23.4256 19.1362 23.325 19.0946C23.2245 19.0529 23.1331 18.9919 23.0561 18.915L20.5137 16.3726C20.4217 16.2802 20.3124 16.2069 20.1919 16.1569C20.0715 16.1068 19.9423 16.0811 19.8119 16.0811C19.6815 16.0811 19.5524 16.1068 19.4319 16.1569C19.3115 16.2069 19.2021 16.2802 19.1101 16.3726L16.3768 19.1059C16.2844 19.1979 16.2111 19.3073 16.1611 19.4277C16.111 19.5482 16.0853 19.6773 16.0853 19.8077C16.0853 19.9381 16.111 20.0673 16.1611 20.1877C16.2111 20.3082 16.2844 20.4175 16.3768 20.5095L18.8653 23.0025C19.0201 23.1574 19.1073 23.3673 19.1078 23.5864V30.9169C19.1079 31.0258 19.0865 31.1336 19.0449 31.2342C19.0032 31.3347 18.9422 31.4261 18.8653 31.5031L16.3746 33.996C16.2822 34.0881 16.2088 34.1974 16.1588 34.3179C16.1088 34.4383 16.083 34.5675 16.083 34.6979C16.083 34.8283 16.1088 34.9574 16.1588 35.0779C16.2088 35.1983 16.2822 35.3077 16.3746 35.3997L19.1078 38.1329C19.1999 38.2254 19.3092 38.2987 19.4297 38.3487C19.5501 38.3988 19.6792 38.4245 19.8097 38.4245C19.9401 38.4245 20.0692 38.3988 20.1897 38.3487C20.3101 38.2987 20.4195 38.2254 20.5115 38.1329L23.0718 35.5726C23.2276 35.4177 23.4382 35.3305 23.658 35.3301H30.8942C31.1132 35.3306 31.3232 35.4178 31.4781 35.5726L34.0205 38.115C34.2069 38.3005 34.4592 38.4047 34.7223 38.4047C34.9853 38.4047 35.2377 38.3005 35.4241 38.115L38.1596 35.3795C38.3452 35.1931 38.4493 34.9407 38.4493 34.6777C38.4493 34.4146 38.3452 34.1623 38.1596 33.9758L35.4264 31.2426Z" fill="#14143C"/>
<path d="M11.6662 23.8149L8.93154 26.5495C8.54388 26.9372 8.54388 27.5657 8.93154 27.9534L11.6662 30.6881C12.0539 31.0757 12.6824 31.0757 13.0701 30.6881L15.8047 27.9534C16.1924 27.5657 16.1924 26.9372 15.8047 26.5495L13.0701 23.8149C12.6824 23.4272 12.0539 23.4272 11.6662 23.8149Z" fill="#14143C"/>
</g>
<defs>
<clipPath id="clip0_8_250">
<rect width="215" height="54.5119" fill="white"/>
</clipPath>
</defs>
</svg>
